<?xml version="1.0" encoding="utf-8"?>
<!-- Generator: Adobe Illustrator 24.0.3, SVG Export Plug-In . SVG Version: 6.00 Build 0)  -->
<svg version="1.1" baseProfile="basic" id="Ebene_1"
	 xmlns="http://www.w3.org/2000/svg" xmlns:xlink="http://www.w3.org/1999/xlink" x="0px" y="0px" viewBox="0 0 40 60"
	 xml:space="preserve">
<style type="text/css">
	.st0{fill:#FFFFFF;}
</style>
<g>
	<path class="st0" d="M35.5,27.6c-0.3-1.5-1-3-1.8-4.4l1.7-3.5l-2.4-2.4L29.4,19c-1.3-0.8-2.7-1.3-4.2-1.7l-1.2-3.7h-3.4l-1.3,3.7
		c-1.5,0.3-2.9,1-4.2,1.8l-3.5-1.7l-2.4,2.2l1.7,3.5c-0.8,1.3-1.3,2.7-1.7,4.2l-3.7,1.3v3.4l3.7,1.3c0.3,1.5,1,3,1.7,4.2l-1.7,3.5
		l2.4,2.4l3.5-1.7c1.3,0.8,2.7,1.5,4.2,1.8l1.3,3.5h3.4l1.3-3.7c0.5-0.2,1.2-0.3,1.7-0.5l-2.7-2.7c-6.4,1.2-12.1-3.5-12.1-9.9
		c0-5.5,4.5-10.1,10.1-10.1c6.2,0,10.9,5.5,9.9,11.4l2.9,2.9c0.2-0.5,0.3-0.8,0.3-1.3l3.7-1.2v-3.4L35.5,27.6z"/>
	<path class="st0" d="M28.6,33c2.4-5.2-2.5-10.7-7.9-9.2l3,3c1.3,1.3,1.3,3.5,0,4.7c-1.2,1.3-3.5,1.3-4.7,0l-3-2.9
		c-1.5,4.7,3.4,10.1,8.9,7.9l9.9,9.9c1,1,2.5,1,3.5,0c1-0.8,1-2.5,0.2-3.5L28.6,33z M36.3,45.8c-0.8,0-1.4-0.6-1.4-1.4
		s0.6-1.4,1.4-1.4c0.8,0,1.4,0.6,1.4,1.4S37.1,45.8,36.3,45.8z"/>
</g>
</svg>
