<?xml version="1.0" encoding="utf-8"?>
<!-- Generator: Adobe Illustrator 24.1.0, SVG Export Plug-In . SVG Version: 6.00 Build 0)  -->
<svg version="1.1" baseProfile="basic" id="Ebene_1"
	 xmlns="http://www.w3.org/2000/svg" xmlns:xlink="http://www.w3.org/1999/xlink" x="0px" y="0px" viewBox="0 0 40 60"
	 xml:space="preserve">
<style type="text/css">
	.st0{fill:#FFFFFF;}
</style>
<polygon class="st0" points="40,21.9 35.5,16.6 39.8,12.1 37.1,12.1 34.2,15 31.7,12.1 28.4,12.1 32.4,16.9 27.4,21.9 30.2,21.9 
	33.7,18.4 36.7,21.9 "/>
<polygon class="st0" points="23.5,12 23.5,18 19.1,12 18.6,12 15.8,12 15.8,21.9 18.6,21.9 18.6,15.8 23,21.9 23.5,21.9 26.3,21.9 
	26.3,12 "/>
<polygon class="st0" points="13.6,21.9 8.8,16.1 12.7,12.1 9.9,12.1 5.9,16.3 5.9,12.1 3.1,12.1 3.1,21.9 5.9,21.9 5.9,19.1 7,18 
	10.3,21.9 "/>
<path class="st0" d="M3.1,11.5h2.8c0,0,4.3-4.8,15.6-5v-2C9.7,4.5,3.1,11.5,3.1,11.5"/>
<path class="st0" d="M24.2,6.6c8.7,0.7,12.8,4.9,12.8,4.9h2.8c0,0-4.9-5.7-15.7-6.8c-0.9-0.1-1.8-0.2-2.8-0.2v2
	C22.4,6.5,23.4,6.5,24.2,6.6"/>
<g>
	<g id="_x37__22_">
		<g>
			<path class="st0" d="M39.3,38.7h-2.1C36.1,30.9,29.5,25,21.5,25c-6.2,0-11.6,3.6-14.2,8.7l4.3,1.6c1.9-3.5,5.7-5.8,9.9-5.8
				c5.5,0,10.1,3.9,11.2,9.1h-2.7c-0.4,0.3-0.7,0.6-0.2,1.1l4.2,4.3c0.4,0.3,0.9,0.3,1.3,0l4.3-4.3C39.9,39.5,39.7,39,39.3,38.7z
				 M21.5,52.3c-5.1,0-9.4-3.3-10.9-8h2.5c0.4-0.3,0.5-0.8,0.2-1.1L9,38.9c-0.4-0.3-0.9-0.3-1.3,0l-4.2,4.3C3,43.8,3.3,44,3.7,44.3
				h2.1c1.2,6.8,7.8,12.5,15.7,12.5c5.8,0,10.9-3.1,13.6-7.7l-4.3-1.7C28.8,50.4,25.4,52.3,21.5,52.3z"/>
		</g>
	</g>
</g>
<path class="st0" d="M27.1,40.4l-9.5-5.3c-0.2-0.1-0.4-0.1-0.6,0c-0.2,0.1-0.3,0.3-0.3,0.5v10.6c0,0.2,0.1,0.4,0.3,0.5
	c0.1,0.1,0.2,0.1,0.3,0.1c0.1,0,0.2,0,0.3-0.1l9.5-5.3c0.2-0.1,0.3-0.3,0.3-0.5C27.4,40.7,27.3,40.5,27.1,40.4z"/>
</svg>
