<?xml version="1.0" encoding="utf-8"?>
<!-- Generator: Adobe Illustrator 24.1.0, SVG Export Plug-In . SVG Version: 6.00 Build 0)  -->
<svg version="1.1" baseProfile="basic" id="Ebene_1"
	 xmlns="http://www.w3.org/2000/svg" xmlns:xlink="http://www.w3.org/1999/xlink" x="0px" y="0px" viewBox="0 0 40 60"
	 xml:space="preserve">
<style type="text/css">
	.st0{fill:#FFFFFF;}
</style>
<polygon class="st0" points="40,24 35.4,18.6 39.8,14.2 37,14.2 34.1,17.1 31.6,14.2 28.4,14.2 32.4,18.9 27.4,24 30.1,24 
	33.6,20.4 36.7,24 "/>
<polygon class="st0" points="23.4,14.1 23.4,20.1 19.1,14.1 18.5,14.1 15.7,14.1 15.7,23.9 18.5,23.9 18.5,17.9 23,23.9 23.4,23.9 
	26.2,23.9 26.2,14.1 "/>
<polygon class="st0" points="13.6,24 8.7,18.2 12.7,14.2 9.9,14.2 5.8,18.3 5.8,14.2 3,14.2 3,24 5.8,24 5.8,21.2 6.9,20.1 10.2,24 
	"/>
<path class="st0" d="M3,13.6h2.8c0,0,4.3-4.8,15.6-5v-2C9.6,6.6,3,13.6,3,13.6"/>
<path class="st0" d="M24.2,8.7C32.9,9.4,37,13.6,37,13.6h2.8c0,0-4.9-5.7-15.7-6.8c-0.9-0.1-1.8-0.2-2.8-0.2v2
	C22.4,8.5,23.3,8.6,24.2,8.7"/>
<g>
	<g>
		<g>
			<path class="st0" d="M9.5,51.4V29.2c0-0.5,0.4-0.9,0.9-0.9h12.8v3.4c0,0.9,0.8,1.7,1.7,1.7h3.4v2.6H30v-3.4
				c0-0.2-0.1-0.4-0.2-0.6l-5.1-5.1c-0.2-0.2-0.4-0.2-0.6-0.2H10.3c-1.4,0-2.6,1.1-2.6,2.6v22.2c0,1.4,1.1,2.6,2.6,2.6h6v-1.7h-6
				C9.8,52.3,9.5,51.9,9.5,51.4z"/>
			<path class="st0" d="M33.4,43.7h-1.7v1.7h1.7v1.7H30V42h5.1c0-0.9-0.8-1.7-1.7-1.7H30c-0.9,0-1.7,0.8-1.7,1.7v5.1
				c0,0.9,0.8,1.7,1.7,1.7h3.4c0.9,0,1.7-0.8,1.7-1.7v-1.7C35.1,44.5,34.3,43.7,33.4,43.7z"/>
			<path class="st0" d="M24,40.3c-1.9,0-3.4,1.5-3.4,3.4v1.7c0,1.9,1.5,3.4,3.4,3.4c1.9,0,3.4-1.5,3.4-3.4v-1.7
				C27.4,41.9,25.9,40.3,24,40.3z M25.7,45.5c0,0.9-0.8,1.7-1.7,1.7s-1.7-0.8-1.7-1.7v-1.7c0-0.9,0.8-1.7,1.7-1.7s1.7,0.8,1.7,1.7
				V45.5z"/>
			<path class="st0" d="M16.3,40.3h-1.7V48c0,0.5,0.4,0.9,0.9,0.9h4.3v-1.7h-3.4V40.3z"/>
		</g>
	</g>
</g>
</svg>
