<?xml version="1.0" encoding="utf-8"?>
<!-- Generator: Adobe Illustrator 24.1.0, SVG Export Plug-In . SVG Version: 6.00 Build 0)  -->
<svg version="1.1" baseProfile="basic" id="Ebene_1"
	 xmlns="http://www.w3.org/2000/svg" xmlns:xlink="http://www.w3.org/1999/xlink" x="0px" y="0px" viewBox="0 0 40 60"
	 xml:space="preserve">
<style type="text/css">
	.st0{fill:#FFFFFF;}
</style>
<polygon class="st0" points="40,25 35.4,19.6 39.8,15.2 37,15.2 34.1,18.1 31.6,15.2 28.4,15.2 32.4,19.9 27.4,25 30.1,25 
	33.6,21.4 36.7,25 "/>
<polygon class="st0" points="23.4,15.1 23.4,21.1 19.1,15.1 18.5,15.1 15.7,15.1 15.7,24.9 18.5,24.9 18.5,18.9 23,24.9 23.4,24.9 
	26.2,24.9 26.2,15.1 "/>
<polygon class="st0" points="13.6,25 8.7,19.2 12.7,15.2 9.9,15.2 5.8,19.3 5.8,15.2 3,15.2 3,25 5.8,25 5.8,22.2 6.9,21.1 10.2,25 
	"/>
<path class="st0" d="M3,14.6h2.8c0,0,4.3-4.8,15.6-5v-2C9.6,7.6,3,14.6,3,14.6"/>
<path class="st0" d="M24.2,9.7c8.7,0.7,12.8,4.9,12.8,4.9h2.8c0,0-4.9-5.7-15.7-6.8c-0.9-0.1-1.8-0.2-2.8-0.2v2
	C22.4,9.5,23.3,9.6,24.2,9.7"/>
<g>
	<g id="_x37__22_">
		<g>
			<path class="st0" d="M35.2,38.3h-1.6c-0.9-5.9-5.9-10.5-12.1-10.5c-4.8,0-8.9,2.7-10.9,6.7l3.3,1.3c1.5-2.7,4.4-4.5,7.6-4.5
				c4.2,0,7.8,3,8.6,7h-2.1c-0.3,0.3-0.5,0.4-0.1,0.9l3.3,3.3c0.3,0.3,0.7,0.3,1,0l3.3-3.3C35.6,38.9,35.4,38.5,35.2,38.3z
				 M21.4,48.8c-3.9,0-7.2-2.6-8.4-6.1H15c0.3-0.3,0.4-0.6,0.1-0.9l-3.3-3.3c-0.3-0.3-0.7-0.3-1,0l-3.3,3.3
				c-0.4,0.5-0.1,0.6,0.1,0.9h1.6c1,5.2,6,9.6,12.1,9.6c4.5,0,8.4-2.4,10.5-6L28.6,45C27,47.3,24.4,48.8,21.4,48.8z"/>
		</g>
	</g>
</g>
<path class="st0" d="M25.8,39.6l-7.3-4.1c-0.1-0.1-0.3-0.1-0.5,0c-0.1,0.1-0.2,0.2-0.2,0.4v8.2c0,0.2,0.1,0.3,0.2,0.4
	c0.1,0,0.2,0.1,0.2,0.1c0.1,0,0.2,0,0.2-0.1l7.3-4.1c0.1-0.1,0.2-0.2,0.2-0.4C26,39.9,25.9,39.7,25.8,39.6z"/>
</svg>
