<?xml version="1.0" encoding="utf-8"?>
<!-- Generator: Adobe Illustrator 24.0.3, SVG Export Plug-In . SVG Version: 6.00 Build 0)  -->
<svg version="1.1" baseProfile="basic" id="Ebene_1"
	 xmlns="http://www.w3.org/2000/svg" xmlns:xlink="http://www.w3.org/1999/xlink" x="0px" y="0px" viewBox="0 0 40 60"
	 xml:space="preserve">
<style type="text/css">
	.st0{fill:#FFFFFF;}
	.st1{fill:#FFFFFF;stroke:#FFFFFF;stroke-width:0.5;stroke-miterlimit:10;}
</style>
<polygon class="st0" points="40,25.9 35.5,20.6 39.8,16.1 37.1,16.1 34.2,19 31.7,16.1 28.4,16.1 32.4,20.9 27.4,25.9 30.2,25.9 
	33.7,22.4 36.7,25.9 "/>
<polygon class="st0" points="23.5,16 23.5,22 19.1,16 18.6,16 15.8,16 15.8,25.9 18.6,25.9 18.6,19.8 23,25.9 23.5,25.9 26.3,25.9 
	26.3,16 "/>
<polygon class="st0" points="13.6,25.9 8.8,20.1 12.7,16.1 9.9,16.1 5.9,20.3 5.9,16.1 3.1,16.1 3.1,25.9 5.9,25.9 5.9,23.1 7,22 
	10.3,25.9 "/>
<path class="st0" d="M3.1,15.5h2.8c0,0,4.3-4.8,15.6-5v-2C9.7,8.5,3.1,15.5,3.1,15.5"/>
<path class="st0" d="M24.2,10.6c8.7,0.7,12.8,4.9,12.8,4.9h2.8c0,0-4.9-5.7-15.7-6.8c-0.9-0.1-1.8-0.2-2.8-0.2v2
	C22.4,10.5,23.4,10.5,24.2,10.6"/>
<g>
	<g>
		<path class="st1" d="M39.5,38l-9.2-7.7c-0.5-0.4-1.3-0.4-1.9,0c-0.2,0.2-0.4,0.5-0.4,0.8v3.3h-9.2c-0.7,0-1.3,0.5-1.3,1.1
			c0,0.6,0.6,1.1,1.3,1.1h10.5c0.7,0,1.3-0.5,1.3-1.1v-1.7l6,5l-6,5v-1.7c0-0.6-0.6-1.1-1.3-1.1H14.9v-3.3c0-0.6-0.6-1.1-1.3-1.1
			c-0.3,0-0.7,0.1-0.9,0.3l-9.2,7.7c-0.5,0.4-0.5,1.1,0,1.6l9.2,7.7c0.2,0.2,0.6,0.3,0.9,0.3c0.2,0,0.3,0,0.5-0.1
			c0.5-0.2,0.8-0.6,0.8-1v-3.3h9.2c0.7,0,1.3-0.5,1.3-1.1c0-0.6-0.6-1.1-1.3-1.1H13.6c-0.7,0-1.3,0.5-1.3,1.1v1.7l-6-5l6-5v1.7
			c0,0.6,0.6,1.1,1.3,1.1H28v3.3c0,0.6,0.6,1.1,1.3,1.1c0.3,0,0.7-0.1,0.9-0.3l9.2-7.7C40,39.2,40,38.5,39.5,38z"/>
	</g>
</g>
</svg>
