<?xml version="1.0" encoding="utf-8"?>
<!-- Generator: Adobe Illustrator 24.1.0, SVG Export Plug-In . SVG Version: 6.00 Build 0)  -->
<svg version="1.1" baseProfile="basic" id="Ebene_1"
	 xmlns="http://www.w3.org/2000/svg" xmlns:xlink="http://www.w3.org/1999/xlink" x="0px" y="0px" viewBox="0 0 40 60"
	 xml:space="preserve">
<style type="text/css">
	.st0{fill:#FFFFFF;stroke:#FFFFFF;stroke-miterlimit:10;}
	.st1{fill:#FFFFFF;}
</style>
<g>
</g>
<g>
	<g>
		<g>
			<path class="st0" d="M8.3,47.3V12.3c0-0.7,0.6-1.3,1.3-1.3H29v5.4c0,1.5,1.2,2.7,2.6,2.7h5.2v4h2.6v-5.4c0-0.4-0.1-0.7-0.4-1
				l-7.8-8.1c-0.2-0.3-0.6-0.4-0.9-0.4H9.6c-2.1,0-3.9,1.8-3.9,4v34.9c0,2.2,1.7,4,3.9,4h5.3v-2.7H9.6C8.9,48.6,8.3,48,8.3,47.3z"/>
			<path class="st1" d="M38,45h-2.1v2.2H38v2.2h-4.2v-6.7h6.4c0-1.2-1-2.2-2.1-2.2h-4.2c-1.2,0-2.1,1-2.1,2.2v6.7
				c0,1.2,1,2.2,2.1,2.2H38c1.2,0,2.1-1,2.1-2.2v-2.2C40.2,46,39.2,45,38,45z"/>
			<path class="st1" d="M26.7,40.5c-2.3,0-4.2,2-4.2,4.5v2.2c0,2.5,1.9,4.5,4.2,4.5s4.2-2,4.2-4.5V45C31,42.5,29.1,40.5,26.7,40.5z
				 M28.9,47.2c0,1.2-1,2.2-2.1,2.2s-2.1-1-2.1-2.2V45c0-1.2,1-2.2,2.1-2.2s2.1,1,2.1,2.2V47.2z"/>
			<path class="st1" d="M18.2,40.5h-2.1v10c0,0.6,0.5,1.1,1.1,1.1h5.3v-2.2h-4.2V40.5z"/>
			<g>
				<path class="st0" d="M22.4,32.4H18v3.7h4.9v1.1h-6.3V26.9h6.1V28H18v3.3h4.4V32.4z"/>
				<path class="st0" d="M27.2,28h-3.4v-1.1h8.4V28h-3.4v9.2h-1.5V28z"/>
				<path class="st0" d="M33.1,35.6c0.7,0.4,1.6,0.7,2.6,0.7c1.5,0,2.4-0.7,2.4-1.8c0-1-0.6-1.5-2.1-2.1c-1.8-0.6-3-1.5-3-2.9
					c0-1.6,1.5-2.8,3.6-2.8c1.2,0,2,0.2,2.5,0.5l-0.4,1.1c-0.4-0.2-1.1-0.5-2.1-0.5c-1.5,0-2.1,0.8-2.1,1.5c0,1,0.7,1.4,2.2,2
					c1.9,0.7,2.9,1.5,2.9,3c0,1.6-1.3,3-4,3c-1.1,0-2.3-0.3-2.9-0.7L33.1,35.6z"/>
			</g>
		</g>
	</g>
</g>
</svg>
