<?xml version="1.0" encoding="UTF-8"?>
<svg width="40px" height="60px" viewBox="0 0 512 512" xmlns="http://www.w3.org/2000/svg" xmlns:xlink="http://www.w3.org/1999/xlink" version="1.1">
 <!-- Generated by Pixelmator Pro 2.2 -->
 <g id="group">
  <g id="group-1">
   <path id="Percorso" d="M34 256 L60.2 282.2 C168.2 390.2 343.9 390.2 451.9 282.2 L478 256 451.8 229.8 C343.8 121.8 168.1 121.8 60.1 229.8 Z M256 382.2 C180.2 382.2 104.4 353.3 46.7 295.6 L13.8 262.7 C10.1 259 10.1 253 13.8 249.2 L46.7 216.3 C162.1 100.9 349.9 100.9 465.3 216.3 L498.2 249.2 C501.9 252.9 501.9 258.9 498.2 262.7 L465.3 295.6 C407.6 353.3 331.8 382.2 256 382.2 Z" fill="#ffffff" fill-opacity="1" stroke="none"/>
   <path id="Percorso-1" d="M256 183.5 C216 183.5 183.5 216 183.5 256 183.5 296 216 328.5 256 328.5 296 328.5 328.5 296 328.5 256 328.5 216 296 183.5 256 183.5 Z M256 347.5 C205.5 347.5 164.5 306.4 164.5 256 164.5 205.5 205.6 164.5 256 164.5 306.4 164.5 347.5 205.6 347.5 256 347.5 306.5 306.5 347.5 256 347.5 Z" fill="#ffffff" fill-opacity="1" stroke="none"/>
  </g>
 </g>
</svg>
