<?xml version="1.0" encoding="UTF-8"?>
<svg xmlns="http://www.w3.org/2000/svg" viewBox="0 0 800 260" role="img" aria-labelledby="nodeflowTitle nodeflowDesc">
  <title id="nodeflowTitle">Node-RED flow sketch featuring KNX-Ultimate</title>
  <desc id="nodeflowDesc">Minimal grey illustration of the Node-RED editor showing several nodes linked together, including a KNX-Ultimate block.</desc>
  <defs>
    <linearGradient id="frameGradient" x1="0" y1="0" x2="0" y2="1">
      <stop offset="0%" stop-color="#505458"/>
      <stop offset="100%" stop-color="#2f3235"/>
    </linearGradient>
    <linearGradient id="tabGradient" x1="0" y1="0" x2="0" y2="1">
      <stop offset="0%" stop-color="#c8cacd"/>
      <stop offset="100%" stop-color="#b3b5b8"/>
    </linearGradient>
  </defs>

  <!-- Outer frame -->
  <rect x="20" y="20" width="760" height="220" rx="12" fill="#2f3235" />
  <rect x="32" y="36" width="736" height="192" rx="8" fill="#f2f2f2" stroke="#d4d4d4" />

  <!-- Browser chrome -->
  <path d="M32 36 h736 v28 h-736 z" fill="url(#frameGradient)" />
  <circle cx="54" cy="50" r="6" fill="#cccccc" />
  <circle cx="74" cy="50" r="6" fill="#cccccc" />
  <circle cx="94" cy="50" r="6" fill="#cccccc" />

  <!-- Tabs -->
  <path d="M120 36 h120 l18 28 h-138 z" fill="url(#tabGradient)" stroke="#a9acaf" />
  <path d="M258 36 h110 l18 28 h-128 z" fill="#b7b9bc" stroke="#a9acaf" />
  <path d="M384 36 h110 l18 28 h-128 z" fill="#aeb0b3" stroke="#9ea0a3" />

  <!-- Toolbar -->
  <rect x="146" y="74" width="320" height="14" rx="7" fill="#dcdfe1" />
  <rect x="472" y="74" width="28" height="14" rx="4" fill="#dcdfe1" />
  <rect x="508" y="74" width="28" height="14" rx="4" fill="#dcdfe1" />
  <rect x="696" y="74" width="24" height="14" rx="4" fill="#d64545" />

  <!-- Sidebar -->
  <rect x="52" y="98" width="120" height="118" rx="10" fill="#dfe2e4" stroke="#c8cbce" />
  <g fill="#b7b9bc" stroke="#9c9ea1">
    <rect x="64" y="110" width="96" height="18" rx="9" />
    <rect x="64" y="134" width="96" height="18" rx="9" />
    <rect x="64" y="158" width="96" height="18" rx="9" />
    <rect x="64" y="182" width="96" height="18" rx="9" />
    <rect x="64" y="206" width="96" height="18" rx="9" />
  </g>

  <!-- Workspace -->
  <rect x="190" y="98" width="578" height="118" rx="10" fill="#ececec" stroke="#d4d4d4" />

  <!-- Flow nodes -->
  <g fill="#c9cacc" stroke="#9fa1a3" stroke-width="2">
    <rect x="228" y="132" width="120" height="34" rx="12" />
    <rect x="390" y="116" width="132" height="34" rx="12" />
    <rect x="390" y="168" width="132" height="34" rx="12" />
    <rect x="560" y="144" width="134" height="34" rx="12" />
  </g>

  <!-- Connectors -->
  <path d="M348 149 C360 149 360 125 390 125" fill="none" stroke="#8f9093" stroke-width="4" stroke-linecap="round" />
  <path d="M348 149 C360 149 360 180 390 180" fill="none" stroke="#8f9093" stroke-width="4" stroke-linecap="round" />
  <path d="M522 133 C540 133 540 161 560 161" fill="none" stroke="#8f9093" stroke-width="4" stroke-linecap="round" />

  <!-- Port dots -->
  <g fill="#7f8082">
    <circle cx="228" cy="149" r="5" />
    <circle cx="390" cy="133" r="5" />
    <circle cx="390" cy="185" r="5" />
    <circle cx="560" cy="161" r="5" />
  </g>
</svg>
